<?xml version="1.0" encoding="UTF-8" standalone="no"?>
<!-- Created with Inkscape (http://www.inkscape.org/) -->

<svg
   width="223.94705mm"
   height="46.477154mm"
   viewBox="0 0 223.94705 46.477154"
   version="1.1"
   id="svg1"
   xml:space="preserve"
   sodipodi:docname="Cappers Logga.svg"
   inkscape:version="1.4 (e7c3feb1, 2024-10-09)"
   xmlns:inkscape="http://www.inkscape.org/namespaces/inkscape"
   xmlns:sodipodi="http://sodipodi.sourceforge.net/DTD/sodipodi-0.dtd"
   xmlns="http://www.w3.org/2000/svg"
   xmlns:svg="http://www.w3.org/2000/svg"><sodipodi:namedview
     id="namedview1"
     pagecolor="#ffffff"
     bordercolor="#000000"
     borderopacity="0.25"
     inkscape:showpageshadow="2"
     inkscape:pageopacity="0.0"
     inkscape:pagecheckerboard="0"
     inkscape:deskcolor="#d1d1d1"
     inkscape:document-units="mm"
     inkscape:zoom="0.48675939"
     inkscape:cx="482.78472"
     inkscape:cy="-61.632093"
     inkscape:window-width="1808"
     inkscape:window-height="635"
     inkscape:window-x="1639"
     inkscape:window-y="364"
     inkscape:window-maximized="0"
     inkscape:current-layer="layer1"><inkscape:page
       x="0"
       y="0"
       width="223.94705"
       height="46.477154"
       id="page2"
       margin="0"
       bleed="0" /></sodipodi:namedview><defs
     id="defs1" /><g
     inkscape:label="Layer 1"
     inkscape:groupmode="layer"
     id="layer1"
     transform="translate(-290.11677,-185.7581)"><path
       id="text1"
       style="font-weight:bold;font-size:45.7314px;font-family:Montserrat;-inkscape-font-specification:'Montserrat, Bold';letter-spacing:0px;fill:#3f3bf8;fill-opacity:1;stroke-width:0.57327"
       d="m 307.495,185.75811 c -0.0703,0 -0.13673,0.008 -0.2067,0.009 v 6.35103 c 0.19461,-0.009 0.37363,-0.0486 0.57257,-0.0486 1.58536,0 3.04846,0.31991 4.38992,0.96015 1.34145,0.60975 2.56113,1.53951 3.65869,2.7895 l 4.75578,-4.38992 c -1.52438,-1.85974 -3.41438,-3.26238 -5.67046,-4.20749 -2.22559,-0.9756 -4.72542,-1.46348 -7.4998,-1.46348 z m 194.08376,0 c -3.01827,0 -5.53309,0.45738 -7.54527,1.37201 -1.9817,0.88414 -3.47581,2.08832 -4.4819,3.6127 -0.9756,1.49389 -1.46348,3.15545 -1.46348,4.98471 0,1.7073 0.33542,3.10994 1.00614,4.20749 0.70122,1.09756 1.60048,1.98183 2.69803,2.65256 1.09755,0.67072 2.30173,1.21958 3.6127,1.64641 1.34145,0.42682 2.66812,0.79273 3.97909,1.0976 1.34146,0.27439 2.56062,0.5788 3.65817,0.91416 1.09755,0.30488 1.98183,0.71678 2.65255,1.23507 0.67073,0.4878 1.00614,1.15862 1.00614,2.01228 0,0.67072 -0.21344,1.26506 -0.64027,1.78335 -0.42683,0.51829 -1.09765,0.92968 -2.01228,1.23455 -0.88414,0.27439 -2.05782,0.41186 -3.52123,0.41186 -1.92072,0 -3.82622,-0.30492 -5.71645,-0.91467 -1.85975,-0.64024 -3.47582,-1.44802 -4.84776,-2.42363 l -2.5151,5.57899 c 1.43292,1.09756 3.32344,1.99681 5.67098,2.69803 2.34754,0.67073 4.80138,1.00614 7.36234,1.00614 3.04876,0 5.5641,-0.45738 7.54579,-1.37201 2.01218,-0.91463 3.52128,-2.11881 4.52737,-3.6127 1.00609,-1.49389 1.50947,-3.13995 1.50947,-4.93872 0,-1.67681 -0.35092,-3.06395 -1.05213,-4.1615 -0.67073,-1.09755 -1.55448,-1.98182 -2.65204,-2.65255 -1.09755,-0.67073 -2.31723,-1.2046 -3.65869,-1.60094 -1.31096,-0.39634 -2.63711,-0.74674 -3.97857,-1.05161 -1.31096,-0.30488 -2.51514,-0.6098 -3.6127,-0.91467 -1.09755,-0.30488 -1.98182,-0.70128 -2.65255,-1.18908 -0.67073,-0.51829 -1.00614,-1.18911 -1.00614,-2.01228 0,-0.70121 0.19794,-1.31054 0.59428,-1.82883 0.39634,-0.54878 1.05218,-0.99117 1.96681,-1.32653 0.91462,-0.33537 2.08831,-0.50281 3.52123,-0.50281 1.43292,0 2.89602,0.21344 4.38991,0.64027 1.49389,0.39634 2.98801,1.02116 4.4819,1.87482 l 2.28668,-5.62498 c -1.49389,-0.94512 -3.21644,-1.64644 -5.16764,-2.10375 -1.95121,-0.4878 -3.9332,-0.73174 -5.94538,-0.73174 z m -196.21696,0.11627 c -1.68848,0.17013 -3.2826,0.53586 -4.77232,1.1188 -2.10365,0.79268 -3.94816,1.93587 -5.53351,3.42976 -1.55487,1.4939 -2.77455,3.24693 -3.65869,5.25911 -0.85366,2.01219 -1.28054,4.2226 -1.28054,6.63112 0,2.40852 0.42688,4.61894 1.28054,6.63112 0.88414,2.01219 2.10382,3.76522 3.65869,5.25911 1.55487,1.4939 3.38387,2.65208 5.48752,3.47524 1.51968,0.56446 3.12858,0.91856 4.81831,1.08108 v -6.48333 c -0.55518,-0.1181 -1.10301,-0.25057 -1.61696,-0.45114 -1.24999,-0.4878 -2.3322,-1.18911 -3.24683,-2.10374 -0.91463,-0.91463 -1.63145,-1.99684 -2.14974,-3.24683 -0.4878,-1.24999 -0.73122,-2.63713 -0.73122,-4.16151 0,-1.52438 0.24342,-2.91151 0.73122,-4.1615 0.51829,-1.24999 1.23511,-2.3322 2.14974,-3.24683 0.91463,-0.91463 1.99684,-1.61594 3.24683,-2.10375 0.51395,-0.20056 1.06178,-0.33303 1.61696,-0.45113 z m 29.29744,0.43254 -14.26838,32.012 h 7.59178 l 2.85254,-6.85953 h 14.83889 l 2.84169,6.85953 h 7.77471 l -14.31437,-32.012 z m 24.96953,0 v 32.012 h 7.40834 v -8.82582 h 6.44818 c 2.86583,0 5.33517,-0.45738 7.40833,-1.37201 2.07316,-0.94512 3.67373,-2.28677 4.80178,-4.02456 1.12804,-1.7378 1.6924,-3.79575 1.6924,-6.17379 0,-2.40852 -0.56436,-4.48146 -1.6924,-6.21925 -1.12805,-1.7378 -2.72862,-3.06394 -4.80178,-3.97857 -2.07316,-0.94512 -4.5425,-1.418 -7.40833,-1.418 z m 33.01814,0 v 32.012 h 7.40833 v -8.82582 h 6.44819 c 2.86584,0 5.33518,-0.45738 7.40833,-1.37201 2.07316,-0.94512 3.67374,-2.28677 4.80178,-4.02456 1.12804,-1.7378 1.6924,-3.79575 1.6924,-6.17379 0,-2.40852 -0.56436,-4.48146 -1.6924,-6.21925 -1.12804,-1.7378 -2.72862,-3.06394 -4.80178,-3.97857 -2.07315,-0.94512 -4.54249,-1.418 -7.40833,-1.418 z m 33.01814,0 v 32.012 h 24.78609 v -5.94486 h -17.42375 v -7.40833 h 14.86266 v -5.76244 h -14.86266 v -6.951 h 16.82947 v -5.94537 z m 30.68547,0 v 32.012 h 7.40833 v -8.91729 h 6.44819 c 0.11756,0 0.22431,-0.0124 0.34054,-0.014 l 6.15363,8.93124 h 8.00261 l -7.15305,-10.26553 c 0.0208,-0.009 0.0444,-0.0146 0.0651,-0.0238 2.07315,-0.91463 3.67373,-2.22579 4.80177,-3.93309 1.12805,-1.7378 1.69189,-3.79575 1.69189,-6.17379 0,-3.62802 -1.23467,-6.46327 -3.70417,-8.50594 -2.46949,-2.07315 -5.93009,-3.10988 -10.38128,-3.10988 z m -89.31341,6.03684 h 6.03684 c 2.28656,0 3.9936,0.48787 5.12165,1.46347 1.12804,0.97561 1.69188,2.34723 1.69188,4.11551 0,1.7378 -0.56384,3.09444 -1.69188,4.07004 -1.12805,0.9756 -2.83509,1.46348 -5.12165,1.46348 h -6.03684 z m 33.01813,0 h 6.03633 c 2.28657,0 3.99413,0.48787 5.12217,1.46347 1.12804,0.97561 1.69188,2.34723 1.69188,4.11551 0,1.7378 -0.56384,3.09444 -1.69188,4.07004 -1.12804,0.9756 -2.8356,1.46348 -5.12217,1.46348 h -6.03633 z m 63.70361,0 h 6.03684 c 2.28657,0 3.99361,0.48787 5.12165,1.46347 1.12804,0.97561 1.69241,2.34723 1.69241,4.11551 0,1.7378 -0.56437,3.10994 -1.69241,4.11603 -1.12804,0.97561 -2.83508,1.46348 -5.12165,1.46348 h -6.03684 z m -125.4895,1.2392 5.07463,12.25145 h -10.16941 z m -22.35987,15.1784 c -1.09756,1.28048 -2.31724,2.24072 -3.65869,2.88096 -1.34146,0.60975 -2.80456,0.91467 -4.38992,0.91467 -0.19894,0 -0.37796,-0.0399 -0.57257,-0.0486 v 6.35258 c 0.0543,3.9e-4 0.10621,0.007 0.16071,0.007 2.80486,0 5.3202,-0.48787 7.54579,-1.46348 2.25608,-0.9756 4.14608,-2.39322 5.67046,-4.25297 z" /><path
       d="m 438.68306,232.23527 q -0.68707,0 -1.31688,-0.17995 -0.62981,-0.18812 -1.01423,-0.48258 l 0.44986,-0.99788 q 0.36807,0.26174 0.86701,0.43351 0.50712,0.16358 1.02241,0.16358 0.39261,0 0.62981,-0.0736 0.24538,-0.0818 0.35989,-0.22084 0.11451,-0.13905 0.11451,-0.319 0,-0.22902 -0.17994,-0.35989 -0.17995,-0.13904 -0.4744,-0.22084 -0.29446,-0.09 -0.65435,-0.16358 -0.35171,-0.0818 -0.7116,-0.19631 -0.35171,-0.11451 -0.64617,-0.29445 -0.29445,-0.17995 -0.48258,-0.47441 -0.17994,-0.29445 -0.17994,-0.75249 0,-0.49076 0.26174,-0.89155 0.26991,-0.40897 0.80157,-0.64617 0.53984,-0.24538 1.34959,-0.24538 0.53983,0 1.06331,0.13087 0.52348,0.12269 0.92427,0.37625 l -0.40897,1.00606 q -0.40079,-0.22902 -0.80157,-0.33535 -0.40079,-0.11451 -0.78522,-0.11451 -0.38443,0 -0.62981,0.09 -0.24538,0.09 -0.35171,0.2372 -0.10633,0.13905 -0.10633,0.32717 0,0.22084 0.17994,0.35989 0.17995,0.13087 0.47441,0.21266 0.29445,0.0818 0.64616,0.16359 0.35989,0.0818 0.7116,0.18813 0.35989,0.10633 0.65435,0.28627 0.29446,0.17995 0.4744,0.4744 0.18813,0.29446 0.18813,0.74432 0,0.48258 -0.26992,0.88337 -0.26992,0.40079 -0.80976,0.64617 -0.53165,0.24538 -1.34958,0.24538 z m 3.33717,-0.0982 v -5.72554 h 2.47833 q 0.76886,0 1.32505,0.25356 0.5562,0.24538 0.85883,0.71161 0.30264,0.46622 0.30264,1.11238 0,0.63799 -0.30264,1.10421 -0.30263,0.46623 -0.85883,0.71978 -0.55619,0.24538 -1.32505,0.24538 h -1.74219 l 0.58891,-0.59709 v 2.17571 z m 1.32505,-2.02848 -0.58891,-0.62981 h 1.66858 q 0.61345,0 0.91608,-0.26174 0.30264,-0.26173 0.30264,-0.72796 0,-0.4744 -0.30264,-0.73614 -0.30263,-0.26173 -0.91608,-0.26173 h -1.66858 l 0.58891,-0.62981 z m 7.44319,2.12663 q -0.67888,0 -1.25962,-0.22084 -0.57255,-0.22085 -0.99788,-0.62163 -0.41714,-0.40079 -0.65434,-0.94063 -0.22902,-0.53983 -0.22902,-1.17782 0,-0.63799 0.22902,-1.17782 0.2372,-0.53984 0.66252,-0.94063 0.42533,-0.40078 0.99788,-0.62163 0.57256,-0.22084 1.24326,-0.22084 0.67888,0 1.24326,0.22084 0.57255,0.22085 0.9897,0.62163 0.42532,0.40079 0.66252,0.94063 0.2372,0.53165 0.2372,1.17782 0,0.63799 -0.2372,1.186 -0.2372,0.53984 -0.66252,0.94063 -0.41715,0.3926 -0.9897,0.61345 -0.56438,0.22084 -1.23508,0.22084 z m -0.008,-1.12875 q 0.38443,0 0.70342,-0.13087 0.32718,-0.13087 0.57256,-0.37625 0.24538,-0.24538 0.37625,-0.58073 0.13904,-0.33535 0.13904,-0.74432 0,-0.40897 -0.13904,-0.74432 -0.13087,-0.33535 -0.37625,-0.58073 -0.2372,-0.24538 -0.56438,-0.37625 -0.32717,-0.13087 -0.7116,-0.13087 -0.38443,0 -0.7116,0.13087 -0.319,0.13087 -0.56437,0.37625 -0.24538,0.24538 -0.38443,0.58073 -0.13087,0.33535 -0.13087,0.74432 0,0.40079 0.13087,0.74432 0.13905,0.33535 0.37625,0.58073 0.24538,0.24538 0.57255,0.37625 0.32717,0.13087 0.7116,0.13087 z m 4.13056,1.0306 v -5.72554 h 2.44562 q 1.19418,0 1.85671,0.5562 0.66252,0.54801 0.66252,1.52135 0,0.63799 -0.30263,1.10421 -0.30264,0.45805 -0.85883,0.70343 -0.5562,0.24538 -1.32505,0.24538 h -1.7422 l 0.58891,-0.58074 v 2.17571 z m 3.6398,0 -1.43138,-2.07755 h 1.41502 l 1.44774,2.07755 z m -2.31475,-2.02848 -0.58891,-0.62163 h 1.66858 q 0.61345,0 0.91609,-0.26174 0.30263,-0.26991 0.30263,-0.73614 0,-0.4744 -0.30263,-0.73614 -0.30264,-0.26173 -0.91609,-0.26173 h -1.66858 l 0.58891,-0.62981 z m 5.79097,2.02848 v -4.64586 h -1.83217 v -1.07968 h 4.98939 v 1.07968 h -1.83217 v 4.64586 z m 5.70918,0.0982 q -0.68706,0 -1.31687,-0.17995 -0.62981,-0.18812 -1.01424,-0.48258 l 0.44986,-0.99788 q 0.36807,0.26174 0.86701,0.43351 0.50712,0.16358 1.02242,0.16358 0.39261,0 0.62981,-0.0736 0.24538,-0.0818 0.35989,-0.22084 0.11451,-0.13905 0.11451,-0.319 0,-0.22902 -0.17995,-0.35989 -0.17994,-0.13904 -0.4744,-0.22084 -0.29445,-0.09 -0.65434,-0.16358 -0.35171,-0.0818 -0.7116,-0.19631 -0.35172,-0.11451 -0.64617,-0.29445 -0.29446,-0.17995 -0.48258,-0.47441 -0.17995,-0.29445 -0.17995,-0.75249 0,-0.49076 0.26174,-0.89155 0.26992,-0.40897 0.80158,-0.64617 0.53983,-0.24538 1.34958,-0.24538 0.53984,0 1.06332,0.13087 0.52347,0.12269 0.92426,0.37625 l -0.40896,1.00606 q -0.40079,-0.22902 -0.80158,-0.33535 -0.40079,-0.11451 -0.78521,-0.11451 -0.38443,0 -0.62981,0.09 -0.24538,0.09 -0.35171,0.2372 -0.10634,0.13905 -0.10634,0.32717 0,0.22084 0.17995,0.35989 0.17994,0.13087 0.4744,0.21266 0.29446,0.0818 0.64617,0.16359 0.35989,0.0818 0.7116,0.18813 0.35989,0.10633 0.65435,0.28627 0.29445,0.17995 0.4744,0.4744 0.18812,0.29446 0.18812,0.74432 0,0.48258 -0.26992,0.88337 -0.26991,0.40079 -0.80975,0.64617 -0.53166,0.24538 -1.34959,0.24538 z m 8.392,0 q -0.66252,0 -1.23507,-0.21267 -0.56438,-0.22084 -0.98152,-0.62162 -0.41715,-0.40079 -0.65435,-0.94063 -0.22902,-0.53983 -0.22902,-1.186 0,-0.64617 0.22902,-1.186 0.2372,-0.53984 0.65435,-0.94063 0.42532,-0.40078 0.9897,-0.61345 0.56437,-0.22084 1.23507,-0.22084 0.74432,0 1.34141,0.26174 0.60527,0.25356 1.01424,0.7525 l -0.85065,0.78522 q -0.29445,-0.33536 -0.65435,-0.49894 -0.35989,-0.17177 -0.78521,-0.17177 -0.40079,0 -0.73614,0.13087 -0.33535,0.13087 -0.58073,0.37625 -0.24538,0.24538 -0.38443,0.58073 -0.13087,0.33535 -0.13087,0.74432 0,0.40897 0.13087,0.74432 0.13905,0.33535 0.38443,0.58073 0.24538,0.24538 0.58073,0.37625 0.33535,0.13087 0.73614,0.13087 0.42532,0 0.78521,-0.16359 0.3599,-0.17176 0.65435,-0.51529 l 0.85065,0.78521 q -0.40897,0.49894 -1.01424,0.76068 -0.59709,0.26174 -1.34959,0.26174 z m 5.70918,0 q -0.67888,0 -1.25961,-0.22084 -0.57256,-0.22085 -0.99788,-0.62163 -0.41715,-0.40079 -0.65435,-0.94063 -0.22902,-0.53983 -0.22902,-1.17782 0,-0.63799 0.22902,-1.17782 0.2372,-0.53984 0.66253,-0.94063 0.42532,-0.40078 0.99788,-0.62163 0.57255,-0.22084 1.24325,-0.22084 0.67889,0 1.24326,0.22084 0.57255,0.22085 0.9897,0.62163 0.42533,0.40079 0.66253,0.94063 0.2372,0.53165 0.2372,1.17782 0,0.63799 -0.2372,1.186 -0.2372,0.53984 -0.66253,0.94063 -0.41715,0.3926 -0.9897,0.61345 -0.56437,0.22084 -1.23508,0.22084 z m -0.008,-1.12875 q 0.38443,0 0.70343,-0.13087 0.32717,-0.13087 0.57255,-0.37625 0.24538,-0.24538 0.37625,-0.58073 0.13905,-0.33535 0.13905,-0.74432 0,-0.40897 -0.13905,-0.74432 -0.13087,-0.33535 -0.37625,-0.58073 -0.2372,-0.24538 -0.56437,-0.37625 -0.32718,-0.13087 -0.71161,-0.13087 -0.38442,0 -0.7116,0.13087 -0.31899,0.13087 -0.56437,0.37625 -0.24538,0.24538 -0.38443,0.58073 -0.13087,0.33535 -0.13087,0.74432 0,0.40079 0.13087,0.74432 0.13905,0.33535 0.37625,0.58073 0.24538,0.24538 0.57255,0.37625 0.32718,0.13087 0.7116,0.13087 z m 4.13057,1.0306 v -5.72554 h 1.09603 l 3.37806,4.12239 h -0.53166 v -4.12239 h 1.3087 v 5.72554 h -1.08786 l -3.38624,-4.12239 h 0.53166 v 4.12239 z m 7.7949,0 v -4.64586 h -1.83217 v -1.07968 h 4.98939 v 1.07968 h -1.83217 v 4.64586 z m 3.86882,0 v -5.72554 h 4.32687 v 1.06332 h -3.01 v 3.5989 h 3.11633 v 1.06332 z m 1.21872,-2.38837 v -1.03059 h 2.75644 v 1.03059 z m 4.26961,2.38837 v -5.72554 h 1.09603 l 3.37806,4.12239 h -0.53165 v -4.12239 h 1.30869 v 5.72554 h -1.08785 l -3.38624,-4.12239 h 0.53165 v 4.12239 z m 7.7949,0 v -4.64586 h -1.83217 v -1.07968 h 4.9894 v 1.07968 h -1.83217 v 4.64586 z"
       id="text2"
       style="font-weight:bold;font-size:8.17933px;font-family:Montserrat;-inkscape-font-specification:'Montserrat, Bold';letter-spacing:0px;stroke-width:0.102533;fill:#ffffff"
       aria-label="SPORTS CONTENT" /></g></svg>
