<?xml version="1.0" encoding="UTF-8" standalone="no"?>
<!-- Created with Inkscape (http://www.inkscape.org/) -->

<svg
   width="223.94705mm"
   height="46.477154mm"
   viewBox="0 0 223.94705 46.477154"
   version="1.1"
   id="svg1"
   xml:space="preserve"
   xmlns:inkscape="http://www.inkscape.org/namespaces/inkscape"
   xmlns:sodipodi="http://sodipodi.sourceforge.net/DTD/sodipodi-0.dtd"
   xmlns="http://www.w3.org/2000/svg"
   xmlns:svg="http://www.w3.org/2000/svg"><sodipodi:namedview
     id="namedview1"
     pagecolor="#ffffff"
     bordercolor="#000000"
     borderopacity="0.25"
     inkscape:showpageshadow="2"
     inkscape:pageopacity="0.0"
     inkscape:pagecheckerboard="0"
     inkscape:deskcolor="#d1d1d1"
     inkscape:document-units="mm"><inkscape:page
       x="0"
       y="0"
       width="223.94705"
       height="46.477154"
       id="page2"
       margin="0"
       bleed="0" /></sodipodi:namedview><defs
     id="defs1" /><g
     inkscape:label="Layer 1"
     inkscape:groupmode="layer"
     id="layer1"
     transform="translate(-290.11677,-185.7581)"><path
       id="text1"
       style="font-weight:bold;font-size:45.7314px;font-family:Montserrat;-inkscape-font-specification:'Montserrat, Bold';letter-spacing:0px;fill:#3f3bf8;fill-opacity:1;stroke-width:0.57327"
       d="m 307.495,185.75811 c -0.0703,0 -0.13673,0.008 -0.2067,0.009 v 6.35103 c 0.19461,-0.009 0.37363,-0.0486 0.57257,-0.0486 1.58536,0 3.04846,0.31991 4.38992,0.96015 1.34145,0.60975 2.56113,1.53951 3.65869,2.7895 l 4.75578,-4.38992 c -1.52438,-1.85974 -3.41438,-3.26238 -5.67046,-4.20749 -2.22559,-0.9756 -4.72542,-1.46348 -7.4998,-1.46348 z m 194.08376,0 c -3.01827,0 -5.53309,0.45738 -7.54527,1.37201 -1.9817,0.88414 -3.47581,2.08832 -4.4819,3.6127 -0.9756,1.49389 -1.46348,3.15545 -1.46348,4.98471 0,1.7073 0.33542,3.10994 1.00614,4.20749 0.70122,1.09756 1.60048,1.98183 2.69803,2.65256 1.09755,0.67072 2.30173,1.21958 3.6127,1.64641 1.34145,0.42682 2.66812,0.79273 3.97909,1.0976 1.34146,0.27439 2.56062,0.5788 3.65817,0.91416 1.09755,0.30488 1.98183,0.71678 2.65255,1.23507 0.67073,0.4878 1.00614,1.15862 1.00614,2.01228 0,0.67072 -0.21344,1.26506 -0.64027,1.78335 -0.42683,0.51829 -1.09765,0.92968 -2.01228,1.23455 -0.88414,0.27439 -2.05782,0.41186 -3.52123,0.41186 -1.92072,0 -3.82622,-0.30492 -5.71645,-0.91467 -1.85975,-0.64024 -3.47582,-1.44802 -4.84776,-2.42363 l -2.5151,5.57899 c 1.43292,1.09756 3.32344,1.99681 5.67098,2.69803 2.34754,0.67073 4.80138,1.00614 7.36234,1.00614 3.04876,0 5.5641,-0.45738 7.54579,-1.37201 2.01218,-0.91463 3.52128,-2.11881 4.52737,-3.6127 1.00609,-1.49389 1.50947,-3.13995 1.50947,-4.93872 0,-1.67681 -0.35092,-3.06395 -1.05213,-4.1615 -0.67073,-1.09755 -1.55448,-1.98182 -2.65204,-2.65255 -1.09755,-0.67073 -2.31723,-1.2046 -3.65869,-1.60094 -1.31096,-0.39634 -2.63711,-0.74674 -3.97857,-1.05161 -1.31096,-0.30488 -2.51514,-0.6098 -3.6127,-0.91467 -1.09755,-0.30488 -1.98182,-0.70128 -2.65255,-1.18908 -0.67073,-0.51829 -1.00614,-1.18911 -1.00614,-2.01228 0,-0.70121 0.19794,-1.31054 0.59428,-1.82883 0.39634,-0.54878 1.05218,-0.99117 1.96681,-1.32653 0.91462,-0.33537 2.08831,-0.50281 3.52123,-0.50281 1.43292,0 2.89602,0.21344 4.38991,0.64027 1.49389,0.39634 2.98801,1.02116 4.4819,1.87482 l 2.28668,-5.62498 c -1.49389,-0.94512 -3.21644,-1.64644 -5.16764,-2.10375 -1.95121,-0.4878 -3.9332,-0.73174 -5.94538,-0.73174 z m -196.21696,0.11627 c -1.68848,0.17013 -3.2826,0.53586 -4.77232,1.1188 -2.10365,0.79268 -3.94816,1.93587 -5.53351,3.42976 -1.55487,1.4939 -2.77455,3.24693 -3.65869,5.25911 -0.85366,2.01219 -1.28054,4.2226 -1.28054,6.63112 0,2.40852 0.42688,4.61894 1.28054,6.63112 0.88414,2.01219 2.10382,3.76522 3.65869,5.25911 1.55487,1.4939 3.38387,2.65208 5.48752,3.47524 1.51968,0.56446 3.12858,0.91856 4.81831,1.08108 v -6.48333 c -0.55518,-0.1181 -1.10301,-0.25057 -1.61696,-0.45114 -1.24999,-0.4878 -2.3322,-1.18911 -3.24683,-2.10374 -0.91463,-0.91463 -1.63145,-1.99684 -2.14974,-3.24683 -0.4878,-1.24999 -0.73122,-2.63713 -0.73122,-4.16151 0,-1.52438 0.24342,-2.91151 0.73122,-4.1615 0.51829,-1.24999 1.23511,-2.3322 2.14974,-3.24683 0.91463,-0.91463 1.99684,-1.61594 3.24683,-2.10375 0.51395,-0.20056 1.06178,-0.33303 1.61696,-0.45113 z m 29.29744,0.43254 -14.26838,32.012 h 7.59178 l 2.85254,-6.85953 h 14.83889 l 2.84169,6.85953 h 7.77471 l -14.31437,-32.012 z m 24.96953,0 v 32.012 h 7.40834 v -8.82582 h 6.44818 c 2.86583,0 5.33517,-0.45738 7.40833,-1.37201 2.07316,-0.94512 3.67373,-2.28677 4.80178,-4.02456 1.12804,-1.7378 1.6924,-3.79575 1.6924,-6.17379 0,-2.40852 -0.56436,-4.48146 -1.6924,-6.21925 -1.12805,-1.7378 -2.72862,-3.06394 -4.80178,-3.97857 -2.07316,-0.94512 -4.5425,-1.418 -7.40833,-1.418 z m 33.01814,0 v 32.012 h 7.40833 v -8.82582 h 6.44819 c 2.86584,0 5.33518,-0.45738 7.40833,-1.37201 2.07316,-0.94512 3.67374,-2.28677 4.80178,-4.02456 1.12804,-1.7378 1.6924,-3.79575 1.6924,-6.17379 0,-2.40852 -0.56436,-4.48146 -1.6924,-6.21925 -1.12804,-1.7378 -2.72862,-3.06394 -4.80178,-3.97857 -2.07315,-0.94512 -4.54249,-1.418 -7.40833,-1.418 z m 33.01814,0 v 32.012 h 24.78609 v -5.94486 h -17.42375 v -7.40833 h 14.86266 v -5.76244 h -14.86266 v -6.951 h 16.82947 v -5.94537 z m 30.68547,0 v 32.012 h 7.40833 v -8.91729 h 6.44819 c 0.11756,0 0.22431,-0.0124 0.34054,-0.014 l 6.15363,8.93124 h 8.00261 l -7.15305,-10.26553 c 0.0208,-0.009 0.0444,-0.0146 0.0651,-0.0238 2.07315,-0.91463 3.67373,-2.22579 4.80177,-3.93309 1.12805,-1.7378 1.69189,-3.79575 1.69189,-6.17379 0,-3.62802 -1.23467,-6.46327 -3.70417,-8.50594 -2.46949,-2.07315 -5.93009,-3.10988 -10.38128,-3.10988 z m -89.31341,6.03684 h 6.03684 c 2.28656,0 3.9936,0.48787 5.12165,1.46347 1.12804,0.97561 1.69188,2.34723 1.69188,4.11551 0,1.7378 -0.56384,3.09444 -1.69188,4.07004 -1.12805,0.9756 -2.83509,1.46348 -5.12165,1.46348 h -6.03684 z m 33.01813,0 h 6.03633 c 2.28657,0 3.99413,0.48787 5.12217,1.46347 1.12804,0.97561 1.69188,2.34723 1.69188,4.11551 0,1.7378 -0.56384,3.09444 -1.69188,4.07004 -1.12804,0.9756 -2.8356,1.46348 -5.12217,1.46348 h -6.03633 z m 63.70361,0 h 6.03684 c 2.28657,0 3.99361,0.48787 5.12165,1.46347 1.12804,0.97561 1.69241,2.34723 1.69241,4.11551 0,1.7378 -0.56437,3.10994 -1.69241,4.11603 -1.12804,0.97561 -2.83508,1.46348 -5.12165,1.46348 h -6.03684 z m -125.4895,1.2392 5.07463,12.25145 h -10.16941 z m -22.35987,15.1784 c -1.09756,1.28048 -2.31724,2.24072 -3.65869,2.88096 -1.34146,0.60975 -2.80456,0.91467 -4.38992,0.91467 -0.19894,0 -0.37796,-0.0399 -0.57257,-0.0486 v 6.35258 c 0.0543,3.9e-4 0.10621,0.007 0.16071,0.007 2.80486,0 5.3202,-0.48787 7.54579,-1.46348 2.25608,-0.9756 4.14608,-2.39322 5.67046,-4.25297 z" /><text
       xml:space="preserve"
       style="font-weight:bold;font-size:8.17933px;font-family:Montserrat;-inkscape-font-specification:'Montserrat, Bold';text-align:start;letter-spacing:0px;writing-mode:lr-tb;direction:ltr;text-anchor:start;fill:#000000;fill-opacity:1;stroke-width:0.102533"
       x="436.12292"
       y="232.13712"
       id="text2"><tspan
         sodipodi:role="line"
         id="tspan1"
         style="fill:#000000;stroke-width:0.102533"
         x="436.12292"
         y="232.13712">SPORTS CONTENT</tspan></text></g></svg>
